# xmcd
#
# Track frame offsets:
#	150
#	22702
#	42550
#	63997
#	76438
#	94033
#	114991
#	131154
#	152371
#	176922
#	198979
#	214184
#
# Disc length: 3040 seconds
#
# Revision: 0
# Processed by: cddbd v1.5.2PL0 Copyright (c) Steve Scherf et al.
#
# Submitted via: freedbSubmitter v1.01
#
DISCID=9b0bde0c
DTITLE=Alan Reid and Rob van Sante - The Dear Green Place
DYEAR=2017
DGENRE=Contemporary Folk
TTITLE0=The Dear Green Place
TTITLE1=The Final Trawl
TTITLE2=Glesca Peggy
TTITLE3=The Drookit Road
TTITLE4=I Will Go, I Will Go
TTITLE5=By the Dry Cardrona
TTITLE6=Lady Kilmarnock's Lament
TTITLE7=The Islander - Leaving Lismore
TTITLE8=Will You Go to Flanders
TTITLE9=Bess and Her Spinning Wheel - Mary Scott, Flower of Yarrow
TTITLE10=The Gambler (A Gullible's Travails)
TTITLE11=Ruthwell
EXTD=
EXTT0=
EXTT1=
EXTT2=
EXTT3=
EXTT4=
EXTT5=
EXTT6=
EXTT7=
EXTT8=
EXTT9=
EXTT10=
EXTT11=
PLAYORDER=
